<?xml version="1.0" ?><!DOCTYPE svg  PUBLIC '-//W3C//DTD SVG 1.1//EN'  'http://www.w3.org/Graphics/SVG/1.1/DTD/svg11.dtd'><svg enable-background="new 0 0 512 512" height="512px" id="Layer_1" version="1.1" viewBox="0 0 512 512" width="512px" xml:space="preserve" xmlns="http://www.w3.org/2000/svg" xmlns:xlink="http://www.w3.org/1999/xlink"><path d="M442.66,430.869c-15.988,2.562-31.613,6.892-47.405,10.409c-7.073,1.585-14.411,2.085-21.53,3.427  c-4.178,0.796-8.514,2.252-12.827,2.858c1.318-0.417,2.509-0.789,3.335-1.092c5.535-2.131,11.289-3.571,16.96-5.262  c9.332-2.774,19.157-4.146,27.421-9.65c2.282-1.517,1.706-5.981-1.531-5.648c-9.317,0.971-18.824,2.236-28.073,3.844  c-10.371,1.805-20.454,4.943-30.803,6.815c-1.372,0.258-2.744,0.508-4.116,0.759c6.413-1.82,12.843-3.685,19.119-5.929  c3.139-1.122,8.719-2.562,7.991-6.899c-0.22-1.288-1.69-2.259-2.919-2.229c-10.371,0.296-20.522,3.298-30.749,4.821  c-5.193,0.773-10.401,1.486-15.603,2.267c1.259-0.659,2.312-1.471,2.881-2.524c0.971-1.819-0.205-4.837-2.615-4.563  c-21.864,2.494-43.418,6.717-64.903,11.25c2.752-1.296,5.33-2.873,7.619-4.852c2.047-1.781,0.372-5.201-2.146-5.186  c-10.06,0.068-20.264,2.168-30.271,3.252c-11.402,1.236-22.729,3.169-33.948,5.558c-3.904,0.826-7.839,1.584-11.766,2.319  c4.185-1.281,8.362-2.585,12.516-3.957c3.761-1.243,2.207-6.527-1.614-5.853c-8.62,1.531-17.444,1.963-26.103,3.343  c-9.211,1.464-18.18,4.291-27.254,6.361c-2.501,0.576-5.003,1.129-7.505,1.69c6.232-2.047,12.418-4.223,18.332-7.065  c2.722-1.305,1.402-5.8-1.539-5.648c-6.095,0.311-11.857,2.441-17.778,3.745c-6.49,1.425-12.926,2.744-19.34,4.397  c0.174-1.638-0.781-3.382-2.903-3.291c-8.014,0.35-16.618,2.957-24.199,5.481c-6.664,2.214-14.769,3.108-20.386,7.536  c-1.767,1.387-0.751,4.647,1.334,5.064c4.313,0.871,8.408-0.638,12.532-1.782c7.187-2.001,14.776-3.32,22.152-4.473  c1.046-0.167,2.077-0.349,3.108-0.546c-2.502,0.895-5.019,1.781-7.551,2.57c-4.382,1.372-8.779,2.403-12.767,4.753  c-1.774,1.047-2.183,4.321,0,5.239c6.103,2.585,12.562-0.668,18.514-2.752c9.734-3.412,20.787-5.034,30.886-7.309  c5.58-1.243,11.144-2.585,16.716-3.904c-9.371,2.926-18.672,6.034-27.8,9.628c-2.987,1.183-2.858,6.096,0.804,5.959  c5.011-0.182,9.734-1.304,14.495-2.843c5.701-1.827,11.243-3.306,17.119-4.579c11.614-2.524,23.229-4.974,34.957-6.899  c12.327-2.024,24.419-4.912,36.853-6.429c5.299-0.652,10.606-1.38,15.905-2.009c-0.341,0.075-0.705,0.167-1.039,0.228  c-6.603,1.205-13.032,3.244-19.65,4.45c-5.823,1.062-11.834,3.942-17.459,5.822c-5.337,1.781-11.084,2.623-16.004,5.397  c-3.169,1.789-0.902,6.104,2.327,5.542c29.37-5.087,58.337-12.267,87.594-17.854c-5.989,1.6-11.972,3.229-17.831,5.2  c-3.124,1.054-6.202,2.206-9.303,3.328c-5.481,1.077-10.932,2.389-15.488,4.996c-3.047,1.744-0.97,6.338,2.335,5.542  c5.262-1.259,10.356-3.032,15.42-4.875c3.928-0.735,7.854-1.349,11.35-2.259c11.183-2.927,22.463-5.466,33.865-7.414  c10.75-1.843,21.349-4.041,32.175-5.55c0.333-0.046,0.667-0.106,1-0.151c-15.412,4.359-30.506,9.34-45.699,14.396  c-2.297,0.773-3.244,4.329-0.728,5.55c4.617,2.244,12.486-1.319,17.065-2.464c11.296-2.828,22.767-4.716,34.214-6.793  c10.901-1.979,21.682-4.367,32.485-6.565c-5.428,1.827-10.955,3.282-16.338,5.421c-2.979,1.197-6.52,1.812-8.612,4.42  c-1.516,1.902-0.887,4.161,1.335,5.071c5.701,2.335,11.562,1.402,17.384,0c8.938-2.153,17.96-3.586,27.087-4.746  c7.991-1.008,16.012-3.601,23.844-5.474c8.839-2.115,17.702-4.108,26.678-5.542C448.119,436.101,446.481,430.263,442.66,430.869z" fill="#B3B3B3"/><g><g><path d="M150.284,103.922c-7.543,0.917-11.675,8.332-16.664,13.29c-8.021,7.983-16.33,15.655-23.918,24.07    c-7.505,8.317-12.092,17.922-17.566,27.596c-2.752,4.875-6.808,9.014-9.31,13.942c-1.501,2.964-4.7,8.43-7.286,10.576    c-1.387,1.152,0.599,3.101,1.963,1.964c4.549-3.768,6.626-10.076,10.189-14.776c6.558-8.635,11.068-18.468,16.512-27.808    c5.542-9.522,14.821-17.482,22.645-25.086c3.502-3.412,7.028-6.808,10.5-10.257c3.813-3.791,7.066-10.015,12.934-10.728    C152.042,106.485,152.058,103.702,150.284,103.922z" fill="#1F8AFF"/><path d="M172.952,90.413c-9.628,8.499-17.467,18.688-26.436,27.831c-9.529,9.719-18.309,20.029-26.701,30.734    c-7.505,9.583-14.814,19.309-21.576,29.438c-7.589,11.342-13.942,23.381-21.523,34.737c-1.001,1.509,1.417,2.896,2.396,1.41    c6.709-10.053,12.441-20.561,18.915-30.765c7.263-11.402,15.466-22.175,23.752-32.85c8.339-10.727,17.148-21.068,26.708-30.742    c9.006-9.105,16.808-19.324,26.436-27.831C176.272,91.193,174.293,89.23,172.952,90.413z" fill="#1F8AFF"/><path d="M196.62,83.453c-11.562,11.781-21.091,25.412-31.022,38.55c-11.629,15.397-24.442,29.87-36.974,44.524    c-11.22,13.108-22.084,26.276-31.325,40.871c-4.352,6.861-8.332,13.949-12.236,21.076c-2.305,4.208-5.512,8.316-7.096,12.85    c-0.592,1.698,2.1,2.426,2.684,0.735c1.736-4.966,5.474-9.734,8.013-14.366c3.889-7.104,7.991-14.086,12.327-20.932    c9.628-15.177,21.409-28.717,33.077-42.326c10.978-12.812,22.092-25.549,32.342-38.952c10.409-13.593,20.158-27.815,32.182-40.067    C199.834,84.135,197.878,82.172,196.62,83.453z" fill="#1F8AFF"/><path d="M216.096,79.276c-5.648,5.936-9.924,12.774-14.139,19.772c-4.98,8.286-12.941,15.526-19.681,22.379    c-14.048,14.298-26.739,29.764-39.43,45.26c-12.191,14.875-24.836,29.271-35.821,45.085c-5.231,7.513-10.144,15.238-15.071,22.964    c-4.003,6.285-10.136,11.985-12.6,19.112c-0.584,1.706,2.107,2.426,2.684,0.743c2.297-6.649,8.521-12.494,12.327-18.46    c4.913-7.718,9.886-15.413,15.064-22.963c11.228-16.368,24.472-31.189,37.042-46.534c12.13-14.813,24.283-29.627,37.777-43.235    c6.004-6.073,11.994-12.274,17.202-19.059c5.822-7.574,9.946-16.103,16.618-23.092C219.303,79.951,217.332,77.979,216.096,79.276z    " fill="#1F8AFF"/><path d="M144.021,194.571c-8.165,3.616-14.602,13.138-20.803,19.339c-7.369,7.369-15.428,14.42-21.788,22.683    c-3.108,4.033-5.815,8.385-8.469,12.721c-2.054,3.359-6.019,8.059-6.724,11.934c-0.667,3.615-4.526,7.444-4.344,11.174    c0.053,1.047,1.145,1.759,2.1,1.198l0.189-0.106c0.69-0.401,0.781-1.092,0.546-1.66c0.25-2.994,3.275-7.043,4.192-9.871    c2.684-8.271,9.81-17.02,14.912-23.986c5.966-8.143,14.23-14.996,21.356-22.114l9.378-9.386c3.457-3.457,6.262-7.49,10.849-9.522    C147.054,196.246,145.636,193.851,144.021,194.571z" fill="#1F8AFF"/><path d="M128.419,229.581c-16.489,16.868-26.451,37.8-39.18,57.337c-0.985,1.508,1.425,2.896,2.403,1.402    c12.607-19.34,22.402-40.067,38.748-56.776C131.649,230.263,129.678,228.292,128.419,229.581z" fill="#1F8AFF"/><path d="M124.038,259.087c-2.312,3.882-5.981,6.481-8.066,10.432c-2.274,4.306-5.11,8.31-7.536,12.532    c-4.625,8.035-10.409,15.442-12.38,24.684c-0.372,1.744,2.312,2.494,2.684,0.743c1.948-9.15,7.839-15.958,12.1-24.024    c2.267-4.299,5.102-8.31,7.536-12.524c2.213-3.852,5.792-6.61,8.059-10.439C127.358,258.943,124.947,257.548,124.038,259.087z" fill="#1F8AFF"/><path d="M125.425,282.748c-4.306,8.468-8.559,17.36-13.623,25.39c-4.337,6.884-9.75,12.706-11.569,20.855    c-0.387,1.751,2.29,2.502,2.684,0.751c1.896-8.491,7.87-14.769,12.388-21.94c4.686-7.43,8.544-15.822,12.524-23.653    C128.632,282.551,126.236,281.141,125.425,282.748z" fill="#1F8AFF"/><path d="M132.604,304.726c-4.686,4.92-8.112,10.492-11.539,16.322c-1.971,3.366-4.041,6.664-5.981,10.053    c-0.933,1.638-4.116,8.81-5.86,9.598c-1.637,0.721-0.22,3.124,1.41,2.396c1.653-0.735,2.29-1.819,3.04-3.434    c1.797-3.904,4.041-7.574,6.194-11.304c4.359-7.513,8.688-15.345,14.7-21.659C135.804,305.4,133.84,303.43,132.604,304.726z" fill="#1F8AFF"/><path d="M144.719,316.848c-0.455,3.457-4.473,7.528-6.55,10.145c-2.487,3.131-4.693,6.353-6.777,9.771    c-3.169,5.193-8.021,11.948-8.787,18.415c-0.091,0.175-0.151,0.387-0.151,0.637v1.039c0,1.796,2.782,1.796,2.782,0    c0-7.999,7.885-18.256,12.334-24.594c3.435-4.905,9.128-9.257,9.924-15.413C147.736,315.066,144.946,315.089,144.719,316.848z" fill="#1F8AFF"/><path d="M160.215,332.845c-7.907,11.083-15.974,22.395-21.015,35.123c-0.66,1.676,2.031,2.389,2.684,0.735    c4.943-12.479,12.994-23.593,20.734-34.464C163.665,332.784,161.246,331.396,160.215,332.845z" fill="#1F8AFF"/><path d="M168.569,342.579c-4.139,7.217-7.005,15.056-11.137,22.273c-3.57,6.217-6.687,12.964-7.149,20.181    c-0.114,1.797,2.668,1.782,2.782,0c0.539-8.361,5.11-15.473,8.923-22.698c3.191-6.026,5.58-12.418,8.976-18.346    C171.86,342.427,169.457,341.024,168.569,342.579z" fill="#1F8AFF"/><path d="M186.658,352.328c-1.577,3.108-3.844,5.397-5.572,8.354c-1.721,2.941-2.63,6.618-4.169,9.734    c-1.797,3.601-4.405,6.77-6.156,10.439c-0.978,2.039-1.221,4.215-2.191,6.262c-0.773,1.607,1.623,3.018,2.396,1.402    c2.744-5.746,4.753-11.28,8.354-16.709c1.516-2.274,2.456-5.17,3.472-7.718c1.471-3.661,4.473-6.822,6.262-10.363    C189.865,352.139,187.47,350.729,186.658,352.328z" fill="#1F8AFF"/><path d="M206.005,355.437c-0.955,4.45-2.721,8.385-4.965,12.319c-1.812,3.161-5.064,6.482-6.179,9.954    c-1.509,4.692-2.881,9.302-5.421,13.586c-0.94,1.576-1.812,3.358-2.388,5.17c-0.334,0.212-0.584,0.576-0.584,1.092v1.395    c0,1.532,2.456,1.949,2.737,0.372c1.107-6.354,5.777-12.736,7.748-19.006c1.463-4.655,5.216-8.931,7.626-13.153    c1.971-3.442,3.275-7.111,4.102-10.985C209.053,354.428,206.377,353.686,206.005,355.437z" fill="#1F8AFF"/><path d="M225.383,363.791c-0.424-1.744-3.108-1.001-2.684,0.735c0.69,2.865-3.631,5.026-4.738,7.392    c-1.342,2.858-3.957,5.777-5.011,8.574c-2.912,7.839-8.211,14.42-11.129,22.267c-0.622,1.683,2.062,2.41,2.684,0.742    c2.911-7.823,7.68-16.458,12.282-23.434c2.471-3.752,3.745-7.687,7.134-10.818C225.687,367.627,225.914,365.997,225.383,363.791z" fill="#1F8AFF"/><path d="M240.932,366.239c-4.503,6.831-8.749,13.806-13.479,20.478c-4.101,5.776-7.938,10.682-10.318,17.437    c-0.606,1.69,2.085,2.411,2.684,0.735c2.555-7.218,7.134-12.676,11.493-18.824c4.246-5.974,7.991-12.297,12.024-18.422    C244.321,366.141,241.91,364.754,240.932,366.239z" fill="#1F8AFF"/><path d="M256.458,361.789c-6.846,6.899-11.076,16.141-16.914,23.941c-6.975,9.311-10.257,21.455-17.876,30.333    c-1.167,1.342,0.796,3.328,1.963,1.964c6.512-7.582,10.803-17.756,15.701-26.443c2.972-5.231,6.748-9.894,10.098-14.89    c3.04-4.534,5.095-9.015,8.999-12.934C259.695,362.479,257.725,360.516,256.458,361.789z" fill="#1F8AFF"/><path d="M272.796,355.437c-5.647,21.713-16.436,41.477-23.653,62.636c-0.591,1.698,2.1,2.426,2.684,0.735    c7.218-21.159,18.006-40.916,23.661-62.628C275.935,354.443,273.251,353.708,272.796,355.437z" fill="#1F8AFF"/><path d="M296.813,349.266c-9.037,8.142-14.526,18.923-20.212,29.506c-5.776,10.772-11.766,21.606-12.205,34.101    c-0.062,1.796,2.729,1.781,2.782,0c0.424-11.948,6.262-22.418,11.834-32.69c5.61-10.363,10.894-20.947,19.771-28.953    C300.119,350.023,298.147,348.067,296.813,349.266z" fill="#1F8AFF"/><path d="M325.683,323.437c-1.471,3.707-3.7,6.951-5.929,10.234c-2.198,3.237-3.525,6.481-5.231,10.022    c-4.078,8.468-9.514,16.246-13.994,24.495c-4.519,8.316-9.295,16.496-13.995,24.707c-4.185,7.331-8.628,14.207-10.947,22.387    c-0.5,1.729,2.191,2.464,2.684,0.743c2.472-8.726,7.498-16.171,11.948-23.972c4.7-8.203,9.416-16.383,13.919-24.685    c4.488-8.264,9.779-16.019,13.866-24.487c3.101-6.444,7.725-12.069,10.363-18.71C329.025,322.504,326.334,321.791,325.683,323.437    z" fill="#1F8AFF"/><path d="M353.521,305.34c-1.531,4.943-4.237,9.112-7.111,13.351c-3.229,4.753-5.269,10.583-7.877,15.716    c-5.504,10.841-11.5,21.455-17.52,32.008c-5.405,9.469-10.94,18.847-16.284,28.346c-1.881,3.344-8.438,10.228-6.885,14.306    c0.638,1.653,3.328,0.94,2.691-0.735c-0.742-1.94,3.146-6.391,4.178-7.975c2.221-3.404,4.049-7.097,6.058-10.622    c5.405-9.461,10.939-18.839,16.284-28.338c5.617-9.984,11.137-20.03,16.239-30.279c2.168-4.352,3.965-8.733,6.693-12.76    c2.631-3.874,4.83-7.809,6.21-12.273C356.735,304.361,354.044,303.627,353.521,305.34z" fill="#1F8AFF"/><path d="M435.981,200.355c-27.072,27.61-45.677,64.622-61.507,99.48c-3.57,7.854-7.179,15.375-9.825,23.601    c-3.04,9.446-5.928,18.21-10.567,27.064c-4.359,8.332-9.568,16.27-13.54,24.798c-3.291,7.036-10.091,11.463-12.077,19.112    c-0.455,1.736,2.236,2.479,2.684,0.735c1.986-7.642,9.4-13.312,12.744-20.491c3.654-7.816,8.521-15.141,12.593-22.744    c3.691-6.892,6.754-13.775,9.059-21.235c2.904-9.445,6.277-18.058,10.28-27.095c8.09-18.278,17.013-36.579,27.497-53.614    c10.303-16.739,20.796-33.54,34.624-47.648C439.203,201.038,437.24,199.074,435.981,200.355z" fill="#1F8AFF"/><path d="M426.527,246.055c-3.449,2.464-5.216,6.929-7.277,10.53c-3.518,6.187-5.914,12.896-9.621,18.961    c-7.194,11.796-12.509,24.525-19.854,36.283c-7.885,12.615-15.133,25.784-21.91,39.013c-6.02,11.751-12.539,23.502-13.01,36.974    c-0.061,1.805,2.722,1.797,2.79,0c0.501-14.396,8.445-27.572,14.942-40.059c6.088-11.705,12.631-23.312,19.583-34.525    c6.52-10.492,11.773-21.311,17.55-32.197c2.987-5.61,5.884-10.962,8.62-16.716c2.214-4.663,5.254-12.752,9.583-15.853    C429.378,247.427,427.983,245.016,426.527,246.055z" fill="#1F8AFF"/><path d="M428.81,279.958c-9.938,15.428-20.15,30.605-30.62,45.715c-5.626,8.127-10.584,16.701-14.435,25.821    c-3.23,7.627-4.519,16.155-9.227,23.093c-1.009,1.501,1.402,2.881,2.403,1.41c3.949-5.83,5.512-12.691,7.763-19.279    c3.374-9.863,8.81-18.945,14.525-27.604c5.565-8.43,11.857-16.193,17.065-24.882c4.686-7.815,9.984-15.192,14.92-22.872    C432.184,279.852,429.772,278.457,428.81,279.958z" fill="#1F8AFF"/><path d="M245.109,65.645c-3.874,5.171-7.657,10.379-11.129,15.822c-3.669,5.724-9.052,10.72-13.298,16.057    c-3.813,4.806-6.967,9.977-10.363,15.086c-3.184,4.776-6.118,8.9-7.104,14.602c-0.304,1.751,2.38,2.501,2.684,0.735    c0.91-5.276,3.919-9.553,6.815-13.927c4.147-6.254,8.241-12.418,12.934-18.278c3.479-4.344,7.832-8.142,10.728-12.873    c3.366-5.496,7.271-10.667,11.129-15.822C248.582,65.607,246.171,64.227,245.109,65.645z" fill="#1F8AFF"/><path d="M270.37,66.751c-7.43,7.71-13.282,16.792-19.696,25.336l-10.962,14.609    c-2.835,3.775-5.443,6.33-5.928,11.144c-0.182,1.782,2.608,1.759,2.782,0c0.455-4.586,4.458-8.279,7.111-11.827    c3.563-4.73,7.013-9.567,10.742-14.169c6.164-7.627,11.084-16.02,17.922-23.13C273.584,67.426,271.621,65.463,270.37,66.751z" fill="#1F8AFF"/><path d="M285.684,76.494c-10.727,11.455-19.423,25.367-26.663,39.248c-0.72,1.388,1.039,2.835,2.191,1.691    l1.388-1.395c0.492-0.485,0.492-1.077,0.242-1.547c6.815-12.713,15.003-25.548,24.813-36.025    C288.876,77.153,286.912,75.182,285.684,76.494z" fill="#1F8AFF"/><path d="M307.594,82.68c-0.395,1.797-4.063,3.821-5.345,5.231c-1.956,2.138-4.049,4.587-5.648,6.959    c-5.329,7.877-11.212,15.208-17.876,21.986c-1.259,1.273,0.713,3.245,1.971,1.963c6.247-6.353,11.819-13.168,16.914-20.492    c2.418-3.472,6.163-9.233,9.916-11.174c1.721-0.879,2.351-1.926,2.752-3.738C310.656,81.664,307.973,80.921,307.594,82.68z" fill="#1F8AFF"/><path d="M326.039,86.235c-6.209,6.391-11.312,13.639-17.217,20.28c-3.973,4.465-10.22,9.294-11.023,15.496    c-0.167,1.266,1.592,1.766,2.373,0.985l1.402-1.387c0.689-0.705,0.395-1.592-0.197-2.055c1.145-2.184,3.215-3.829,4.883-5.701    c2.638-2.972,5.079-6.072,7.831-8.946c4.98-5.208,8.848-11.493,13.919-16.701C329.261,86.925,327.29,84.954,326.039,86.235z" fill="#1F8AFF"/><path d="M338.207,92.414c-0.425,1.44-3.48,5.504-4.405,7.187c-1.387,2.547-3.54,4.564-5.057,7.058    c-3.608,5.906-7.657,11.531-11.273,17.429c-0.599,0.993,0.402,2.479,1.569,2.047c1.274-0.47,2.153-0.872,2.365-2.358    c0.03-0.228,0.023-0.432-0.03-0.614c3.199-5.072,6.565-10.03,9.772-15.102c3.032-4.791,8.119-9.416,9.742-14.904    C341.406,91.429,338.715,90.701,338.207,92.414z" fill="#1F8AFF"/><path d="M354.81,99.374c-0.243-1.766-2.919-1.016-2.691,0.743c0.689,5.049-4.73,9.507-7.998,12.63    c-1.213,1.152-1.827,1.948-2.79,3.389c-1.729,2.6-5.254,9.621-8.741,10.053c-1.759,0.22-1.774,3.002,0,2.782    c6.543-0.819,10.105-11.023,14.336-15.057C350.928,110.086,355.613,105.34,354.81,99.374z" fill="#1F8AFF"/><path d="M363.392,106c-3.389,4.867-7.309,9.333-10.917,14.025c-3.806,4.928-6.839,10.371-11.122,14.919    c-1.235,1.304,0.729,3.275,1.964,1.964c4.018-4.253,6.982-9.242,10.401-13.972c3.813-5.307,8.324-10.144,12.084-15.534    C366.833,105.924,364.415,104.544,363.392,106z" fill="#1F8AFF"/><path d="M370.351,114.354c-4.154,9.689-8.423,19.279-15.086,27.55c-1.115,1.38,0.841,3.366,1.971,1.963    c6.823-8.468,11.266-18.172,15.526-28.111C373.459,114.126,371.063,112.701,370.351,114.354z" fill="#1F8AFF"/><path d="M386.916,117.47c-0.91,6.376-5.784,9.537-8.757,14.7c-3.214,5.625-7.398,11.083-9.34,17.308    c-0.53,1.714,2.161,2.449,2.691,0.735c2.002-6.459,6.618-12.38,9.962-18.225c1.493-2.593,3.987-4.086,5.512-6.846    c1.235-2.251,2.251-4.39,2.615-6.937C389.85,116.454,387.166,115.696,386.916,117.47z" fill="#1F8AFF"/><path d="M396.604,127.576c-0.371,2.843-2.889,5.504-4.344,8.006c-1.622,2.805-3.154,5.739-5.11,8.316    c-4.207,5.595-8.21,11.243-9.977,18.104c-0.447,1.736,2.236,2.479,2.684,0.735c2.115-8.233,7.938-13.434,11.797-20.636    c2.539-4.769,7.035-9.09,7.732-14.525C399.622,125.802,396.84,125.824,396.604,127.576z" fill="#1F8AFF"/><path d="M408.438,141.692c-1.471-1.046-2.857,1.372-1.402,2.396c4.109,2.896-16.777,30.833-19.764,34.002    c-1.229,1.304,0.742,3.275,1.963,1.963c5.876-6.231,10.576-14.108,14.95-21.409C406.119,155.414,413.321,145.119,408.438,141.692z    " fill="#1F8AFF"/><path d="M414.746,160.607c-1.402,7.786-8.741,13.404-12.183,20.067c-2.032,3.927-4.579,10.659-7.907,13.57    c-1.91,1.668-3.062,2.813-3.563,5.337c-0.349,1.751,2.328,2.494,2.677,0.735c0.538-2.729,3.935-5.026,5.238-7.543    c2.259-4.397,4.837-10.606,8.324-14.116c1.956-1.986,4.049-4.359,5.117-6.982c1.479-3.632,4.283-6.421,4.981-10.326    C417.749,159.599,415.064,158.841,414.746,160.607z" fill="#1F8AFF"/><path d="M423.457,173.912c-5.353,5.708-9.098,12.494-13.002,19.226c-4.965,8.59-12.137,16.815-19.006,23.911    c-1.054,1.092,0.038,2.517,1.357,2.328c1.417-0.197,1.85-1.023,2.297-2.199c4.98-5.413,9.386-11.266,13.836-17.126    c5.913-7.801,9.727-16.959,16.489-24.169C426.649,174.579,424.678,172.601,423.457,173.912z" fill="#1F8AFF"/><path d="M214.353,173.131c-0.819,3.753-6.224,5.436-6.778,9.659c-0.478,3.76-3.843,8.135-5.436,11.584    c-1.63,3.525-3.048,7.165-4.488,10.773c-0.674,1.66,2.024,2.381,2.684,0.735c1.637-4.102,3.32-8.18,5.17-12.198    c1.274-2.759,3.776-5.784,4.579-8.673c1.259-4.64,5.982-6.694,6.952-11.137C217.415,172.123,214.731,171.388,214.353,173.131z" fill="#1F8AFF"/><path d="M235.587,166.952c-2.957,3.101-5.405,6.642-8.354,9.75c-1.274,1.334-1.85,4.131-2.775,5.837    c-1.312,2.411-2.881,4.685-4.397,6.959c-1,1.501,1.41,2.889,2.396,1.41c2.418-3.631,5.064-7.346,6.595-11.471    c0.683-1.857,2.624-3.548,3.859-5.072c1.509-1.85,2.995-3.714,4.64-5.443C238.787,167.62,236.823,165.648,235.587,166.952z" fill="#1F8AFF"/><path d="M250.674,165.846c-1.607,2.949-4.503,5.042-5.708,8.157c-1.926,4.981-6.626,9.644-9.605,14.108    c-0.993,1.494,1.418,2.889,2.411,1.403c1.501-2.267,3.033-4.511,4.64-6.717c1.425-1.963,3.283-3.495,4.298-5.701    c1.706-3.692,4.435-6.277,6.368-9.848C253.934,165.671,251.531,164.269,250.674,165.846z" fill="#1F8AFF"/><path d="M267.179,169.333c0.204-1.782-2.586-1.759-2.782,0c-0.342,2.979-3.928,7.46-5.959,9.59    c-2.555,2.691-4.352,6.103-6.376,9.188c-0.683,1.039,0.439,2.343,1.577,2.04c1.471-0.394,2.259-1.175,2.411-2.729    c0.008-0.076-0.022-0.122-0.022-0.122c2.107-3.063,4.337-5.958,6.3-9.021C264.169,175.383,266.776,172.881,267.179,169.333z" fill="#1F8AFF"/><path d="M279.899,171.41c-3.002,4.344-6.944,7.566-7.149,13.229c-0.067,1.796,2.715,1.781,2.783,0    c0.174-4.943,4.146-8.036,6.77-11.827C283.326,171.334,280.915,169.947,279.899,171.41z" fill="#1F8AFF"/><path d="M293.811,168.628c-1.417,3.245-2.19,6.187-4.29,9.112c-2.153,3.01-4.284,5.815-5.588,9.31    c-0.326,0.864,0.501,1.759,1.342,1.759h1.388c1.531,0,1.751-2.001,0.675-2.6c1.228-2.54,2.911-4.776,4.594-7.059    c2.214-3.032,2.806-5.731,4.291-9.12C296.935,168.408,294.531,166.983,293.811,168.628z" fill="#1F8AFF"/><path d="M313.515,171.13c-2.548,2.547-5.049,5.147-7.255,7.998c-1.418,1.827-3.775,4.753-2.844,7.271    c0.614,1.668,3.306,0.947,2.685-0.735c-0.721-1.956,2.722-5.36,3.813-6.642c1.751-2.077,3.653-4.01,5.564-5.921    C316.752,171.827,314.78,169.856,313.515,171.13z" fill="#1F8AFF"/><path d="M321.869,175.299c-4.124,4.139-7.24,9.037-9.97,14.2c-0.826,1.592,1.577,2.995,2.411,1.41    c2.601-4.943,5.58-9.689,9.522-13.639C325.106,175.997,323.135,174.033,321.869,175.299z" fill="#1F8AFF"/><path d="M328.465,181.478c-1.501,4.609-2.669,9.317-4.178,13.919c-0.553,1.713,2.139,2.441,2.691,0.743    c1.501-4.602,2.669-9.31,4.17-13.919C331.71,180.515,329.019,179.78,328.465,181.478z" fill="#1F8AFF"/><path d="M339.95,190.606c-1.812,1.744-3.79,3.267-5.359,5.239c-1.547,1.918-2.252,4.154-4.117,5.883    c-3.495,3.229-7.46,5.61-8.969,10.378c-0.538,1.713,2.146,2.441,2.684,0.736c1.396-4.405,5.747-6.831,8.969-9.811    c1.524-1.41,2.077-2.767,3.018-4.586c1.229-2.38,3.858-4.056,5.746-5.868C343.226,191.333,341.254,189.37,339.95,190.606z" fill="#1F8AFF"/><path d="M343.915,202.031c-2.941,4.511-8.043,7.892-11.562,12.039c-3.782,4.465-7.694,8.612-12.008,12.569    c-7.559,6.952-16.694,12.57-22.35,21.311c-0.683,1.054,0.432,2.35,1.562,2.047c1.38-0.379,2.319-0.812,3.404-1.751    c0.78-0.69,0.432-1.622-0.251-2.07c5.982-7.399,14.617-12.986,21.501-19.309c4.245-3.904,7.915-8.233,11.629-12.615    c3.261-3.851,7.733-6.588,10.478-10.826C347.297,201.917,344.886,200.53,343.915,202.031z" fill="#1F8AFF"/><path d="M342.528,221.515c-3.647,4.905-8.431,9.567-12.653,14.146c-5.663,6.148-10.522,12.956-16.36,18.968    c-1.251,1.289,0.72,3.253,1.964,1.964c5.837-5.997,10.833-12.699,16.36-18.961c4.473-5.057,9.127-9.37,13.085-14.723    C346,221.477,343.574,220.082,342.528,221.515z" fill="#1F8AFF"/><path d="M344.135,233.75c-9.431,9.5-18.081,19.597-25.275,30.909c-0.963,1.509,1.448,2.911,2.403,1.395    c7.073-11.106,15.579-21.007,24.844-30.332C347.364,234.44,345.394,232.477,344.135,233.75z" fill="#1F8AFF"/><path d="M182.481,224.297c-2.782,4.374-4.109,9.37-5.708,14.245c-0.561,1.706,2.13,2.441,2.684,0.735    c1.531-4.647,2.775-9.408,5.428-13.578C185.854,224.175,183.444,222.78,182.481,224.297z" fill="#1F8AFF"/><path d="M192.033,284.833c-0.25,6.755-3.927,12.714-4.177,19.491c-0.061,1.789,2.714,1.789,2.783,0    c0.25-6.748,3.927-12.714,4.177-19.491C194.884,283.043,192.102,283.051,192.033,284.833z" fill="#1F8AFF"/><path d="M200.38,294.574c-0.159,5.254-2.623,10.045-2.782,15.314c-0.053,1.797,2.729,1.789,2.782,0    c0.167-5.246,2.623-10.037,2.79-15.314C203.216,292.785,200.441,292.785,200.38,294.574z" fill="#1F8AFF"/><path d="M208.735,301.534v12.531c0,1.789,2.782,1.789,2.782,0v-12.531    C211.517,299.745,208.735,299.745,208.735,301.534z" fill="#1F8AFF"/><path d="M225.383,303.945c-0.333-1.76-3.009-1.017-2.684,0.742c0.554,3.002-1.448,5.542-2.987,7.915    c-1.41,2.184-2.479,4.397-2.631,7.021c-0.098,1.804,2.691,1.789,2.783,0C220.19,313.74,226.558,310.298,225.383,303.945z" fill="#1F8AFF"/><path d="M236.565,307.106c-0.318,5.814-6.618,9.294-6.959,15.307c-0.099,1.789,2.684,1.781,2.782,0    c0.326-5.823,6.626-9.295,6.959-15.307C239.446,305.31,236.664,305.317,236.565,307.106z" fill="#1F8AFF"/><path d="M256.458,303.338c-2.32,2.623-2.995,5.489-4.397,8.628c-1.713,3.858-5.246,7.831-8.135,10.856    c-1.236,1.289,0.735,3.268,1.971,1.963c2.608-2.736,4.776-5.799,6.899-8.923c2.267-3.32,2.972-7.551,5.633-10.553    C259.604,303.96,257.648,301.989,256.458,303.338z" fill="#1F8AFF"/><path d="M265.98,306.401c-1.539,2.881-3.51,5.466-4.875,8.453c-1.304,2.835-2.502,5.641-4.647,7.968    c-1.221,1.312,0.743,3.282,1.971,1.963c2.092-2.273,3.449-4.92,4.716-7.717c1.471-3.275,3.556-6.111,5.238-9.265    C269.232,306.219,266.822,304.816,265.98,306.401z" fill="#1F8AFF"/><path d="M279.005,307.296c-2.736,1.69-3.374,4.146-3.465,7.232c-0.053,1.713-1.751,3.677-2.601,5.095    c-0.962,1.607-1.925,3.207-2.781,4.874c-0.827,1.585,1.576,2.995,2.402,1.396c1.312-2.54,2.858-4.966,4.299-7.438    c0.485-0.811,1.456-2.001,1.456-3.002c0.007-2.267-0.091-4.397,2.092-5.762C281.932,308.751,280.529,306.348,279.005,307.296z" fill="#1F8AFF"/><path d="M288.057,311.275c-0.197,2.123-2.843,4.837-4.185,6.49c-1.479,1.827-1.638,4.624-2.585,6.731    c-0.729,1.623,1.668,3.04,2.403,1.396c1.349-2.995,1.857-6.058,3.935-8.695c1.516-1.934,2.986-3.366,3.214-5.922    C291.006,309.494,288.216,309.51,288.057,311.275z" fill="#1F8AFF"/><path d="M300.99,313.072c-3.957,4.17-5.8,9.772-9.741,13.92c-1.236,1.304,0.728,3.274,1.963,1.971    c3.958-4.162,5.8-9.765,9.75-13.919C304.197,313.747,302.227,311.769,300.99,313.072z" fill="#1F8AFF"/><path d="M314.689,317.538c-0.651,0.842-1.016,1.676-1.38,2.669c-0.697,1.872-1.63,3.26-2.797,4.882    c-2.236,3.116-4.792,5.981-6.96,9.15c-1.016,1.479,1.402,2.873,2.403,1.396c1.956-2.851,4.2-5.459,6.262-8.211    c1.047-1.41,2.222-2.82,3.01-4.39c0.69-1.38,0.895-2.843,1.865-4.102C318.192,317.516,315.767,316.136,314.689,317.538z" fill="#1F8AFF"/></g><g><path d="M249.992,426.199c-15.344,0-28.907-1.857-41.439-5.693c-38.982-11.91-73.113-32.546-96.084-58.072    c-22.016-24.464-44.517-54.38-44.517-90.785c0-7.194-0.189-14.624-0.372-21.811c-0.766-29.946-1.546-60.923,10.47-88.662    c7.786-18.013,16.982-30.492,31.728-43.077c11.402-9.727,23.449-17.042,36.192-24.783c2.57-1.562,5.171-3.139,7.771-4.746    c13.161-8.104,29.809-15.609,49.521-22.312c16.057-5.458,31.068-7.695,51.825-7.725c2.312,0,3.541,1.175,4.169,2.161l0.455,0.712    l0.842,0.053c9.15,0.629,18.126,1.433,27.239,4.299c3.093,0.978,6.004,1.402,8.824,1.812c3.745,0.554,7.278,1.069,10.856,2.812    c4.177,2.032,8.612,3.874,12.903,5.648c3.896,1.615,7.93,3.282,11.72,5.087c6.581,3.116,13.586,5.511,20.356,7.831    c10.833,3.708,22.03,7.543,31.355,14.374c22.183,16.247,41.924,46.844,50.278,77.935c5.77,21.462,4.011,44.63,2.312,67.033    c-0.728,9.545-1.471,19.408-1.607,28.899c-0.409,29.165-6.701,68.739-34.373,91.68l-0.629,0.531    c-26.451,21.939-51.438,42.659-86.449,49.285C294.16,422.325,271.849,426.199,249.992,426.199L249.992,426.199z M200.782,78.328    c-1.19,0.425-2.396,0.849-3.609,1.319c-18.839,7.354-36.079,15.738-49.861,24.252l-0.379,0.235    c-16.845,10.409-37.8,23.365-48.459,40.249c-8.514,13.487-14.548,29.976-18.453,50.407c-2.835,14.814-2.342,30.242-1.865,45.154    c0.182,5.625,0.371,11.448,0.371,17.088c0,22.054,2.13,40.612,12.555,59.505c18.779,34.062,50.438,63.008,89.125,81.506    c22.167,10.613,42.174,15.859,64.873,17.02c2.1,0.106,4.177,0.159,6.239,0.159c11.508,0,22.312-1.501,33.752-3.093    c4.457-0.622,8.945-1.243,13.517-1.774c11.668-1.356,23.328-4.283,34.661-8.673l2.366-0.909c6.86-2.631,15.412-5.914,20.863-9.947    l5.193-3.828c13.396-9.855,27.254-20.037,38.163-31.932c16.868-18.393,21.826-44.646,23.274-58.656    c1.023-9.909,1.107-19.931,1.107-28.536c0-4.078,0.462-8.195,0.917-12.183c0.447-3.859,0.895-7.847,0.933-11.857    c0.061-4.973,0.371-10.09,0.72-15.488c0.94-15.049,1.918-30.605-2.934-44.373c-4.442-12.6-10.856-28.998-21.129-44.001    c-7.771-11.349-14.988-19.741-22.069-25.654c-8.271-6.922-17.148-9.848-26.526-12.941l-2.699-0.895    c-8.157-2.714-16.526-6.201-24.896-10.356c-3.669-1.819-7.535-3.343-11.28-4.814c-4.466-1.759-9.098-3.579-13.252-5.875    c-2.29-1.258-5.186-1.44-8.006-1.615c-1.979-0.122-3.859-0.235-5.36-0.713c-1.251-0.387-2.494-0.811-3.745-1.235    c-2.19-0.735-4.458-1.501-6.739-2.123c-2.009-0.546-4.147-0.804-6.725-0.804c-1.69,0-3.381,0.106-5.064,0.22    c-1.614,0.106-3.222,0.212-4.829,0.212c-2.335,0-4.238-0.235-5.981-0.735c-4.2-1.198-8.483-1.789-13.093-1.789    c-7.483,0-14.813,1.584-21.917,3.108c-2.828,0.614-5.67,1.228-8.559,1.759l-0.622,0.106l-0.394,0.5    c-1.031,1.319-2.547,2.062-4.125,2.062h-1.857c-0.72,0-1.395-0.121-2.047-0.387l-0.583-0.228L200.782,78.328z" fill="#0077BF"/><path d="M238.718,277.16c-7.414,0-20.25-1.569-22.887-12.069c-1.607-6.459,0.758-16.269,3.798-22.22    c3.131-6.118,8.074-10.939,15.109-14.73c5.512-2.979,13.396-4.905,20.075-4.905c6.489,0,14.783,1.729,17.444,9.962    c0.288,0.879,0.349,1.713,0.182,2.547l-0.022,0.152l0.008,0.455c-0.819,15.799-1.744,33.601-18.991,38.786    c-4.299,1.288-9.658,2.023-14.708,2.023H238.718z M253.464,233.667c-1.971,0-3.942,0.311-5.875,0.925    c-4.882,1.517-10.432,3.229-14.313,7.255c-1.857,1.918-8.56,13.282-7.498,19.158c0.364,2.001,1.501,2.934,2.411,3.358    c3.245,1.555,7.331,2.403,11.508,2.403c7.096,0,13.374-2.297,17.232-6.308c4.146-4.291,4.549-14.692,4.821-21.576l0.145-3.518    h-1.744c-0.137-0.045-0.879-0.432-1.273-0.637c-0.758-0.395-1.205-0.622-1.668-0.697    C255.996,233.788,254.707,233.667,253.464,233.667L253.464,233.667z" fill="#0077BF"/><path d="M198.485,322.397c-3.601,0-7.308-3.411-10.568-6.429c-1.395-1.281-2.699-2.486-4.003-3.465    c-7.763-5.814-12.532-18.649-16.012-28.013l-0.94-2.509c-3.942-10.47-3.76-19.644-3.548-30.287    c0.046-2.411,0.091-4.882,0.091-7.43c0-15.178,3.434-24.457,9.765-36.299c13.138-24.586,36.253-41.515,60.316-44.153    c11.084-1.221,21.197-1.812,30.932-1.812c18.285,0,34.736,2.107,50.301,6.429c26.133,7.271,39.097,20.098,40.81,40.37    c0.69,8.15-1.789,16.641-4.185,24.844c-0.781,2.668-1.554,5.307-2.214,7.907c-2.699,10.697-8.681,21.901-15.996,29.961    c-4.458,4.897-10.439,7.285-18.301,7.285l0,0c-2.82,0-5.853-0.303-9.279-0.917c-8.014-1.426-8.605-8.938-8.552-18.604l0.008-1.547    c0-11.508,3.479-23.297,9.31-31.538c0.637-0.895,1.781-2.267,3.115-3.851c5.459-6.52,9.591-11.766,9.249-15.17    c-0.553-5.481-11.318-14.435-19.104-14.435c-3.904,0-6.725,2.146-7.945,6.042c-0.864,2.76-3.229,3.745-5.155,3.745    c-2.152,0-4.04-1.152-4.813-2.926l-0.175-0.394l-0.333-0.266c-7.202-5.557-18.165-6.732-26.11-6.732    c-13.828,0-28.824,3.669-36.473,8.923c-22.1,15.201-31.522,33.168-28.809,54.949c0.189,1.44,0.341,2.927,0.5,4.412    c1.009,9.394,2.146,20.037,9.424,27.263c6.717,6.648,13.396,11.311,21.022,14.677c4.541,2.001,9.363,2.972,14.723,2.972    c10.439,0,21.114-3.896,29.695-7.035l0.38-0.137l0.28-0.303c0.963-1.039,2.448-1.638,4.071-1.638c2.607,0,5.254,1.562,5.254,5.049    v0.925c0,3.336-2.806,4.708-4.011,5.141c-1.85,0.667-3.646,1.356-5.405,2.023c-8.203,3.108-15.284,5.8-24.366,5.8    c-0.675,0-1.357-0.008-2.055-0.045c-14.359-0.638-22.698-2.806-34.312-8.9c-26.981-14.154-27.027-50.9-25.791-66.048    c1.804-22.077,21.061-44.79,44.805-52.803c10.295-3.48,22.183-5.474,32.599-5.474c11.122,0,20.386,2.108,27.565,6.285l1.107,0.645    l0.909-0.91c3.352-3.358,8.052-5.132,13.563-5.132c11.364,0,23.706,7.437,28.088,16.929c2.244,4.844,3.412,12.38-3.723,20.78    c-8.566,10.083-16.504,21-16.504,32.538c0,0.713-0.015,1.426-0.03,2.138c-0.091,3.965-0.182,8.051,2.365,10.659    c1.531,1.57,3.745,2.328,6.755,2.328c7.597,0,12.79-8.824,14.67-12.623c3.548-7.142,5.625-13.858,7.816-20.97    c1.068-3.457,2.168-7.027,3.464-10.659c4.905-13.828,0.819-23.138-6.822-32.856c-9.446-11.994-31.022-18.082-64.122-18.082    l-10.425-0.03c-22.629,0-44.327,1.41-61.112,18.438c-9.021,9.158-17.604,18.43-23.259,31.098    c-3.283,7.376-3.139,15.397-2.995,23.168c0.083,4.246,0.159,8.643-0.356,12.752c-1.729,13.866,6.118,28.179,12.426,39.688    l0.265,0.485c2.236,4.078,5.557,6.664,8.779,9.166c1.683,1.318,3.283,2.555,4.731,4.01l0.258,0.258l0.341,0.121    c2.517,0.94,3.419,3.769,3.002,6.08C203.261,319.229,202.382,322.397,198.485,322.397L198.485,322.397z" fill="#0077BF"/><path d="M252.759,366.005c-10.887,0-19.324-0.417-26.542-1.312c-4.253-0.523-8.112-1.722-12.198-2.979    c-2.783-0.864-5.664-1.759-8.681-2.419c-17.823-3.904-33.532-12.986-49.384-22.759c-9.795-6.026-15.958-21.856-20.909-34.57    c-1.122-2.903-2.183-5.609-3.199-7.982c-6.929-16.179-10.795-29.567-8.711-46.253c0.561-4.511,0.94-9.045,1.296-13.442    c0.773-9.469,1.501-18.407,4.003-27.489c8.354-30.226,36.23-57.739,60.142-71.589c22.509-13.032,46.2-19.37,72.454-19.37    c6.383,0,13.069,0.379,19.84,1.137c17.732,1.971,36.071,7.703,53.03,16.542l0.804,0.424c13.403,6.99,28.597,14.905,39.232,25.67    c8.302,8.408,17.247,22.668,17.247,34.1c0,3.761,1.214,6.861,2.381,9.863c1.062,2.722,2.062,5.307,2.146,8.271    c0.129,4.541-0.137,9.173-0.387,13.638c-0.212,3.715-0.432,7.551-0.432,11.364c0,12.721-5.596,24.502-11.008,35.897    c-1.569,3.306-3.192,6.725-4.647,10.105c-5.792,13.465-14.98,21.948-26.989,30.561c-5.883,4.223-13.82,9.12-22.94,9.507    l-2.578,0.113c-2.934,0.145-6.27,0.296-9.521,0.296l0,0c-4.974,0-8.757-0.371-11.592-1.13c-1.934-0.516-3.89-1.001-5.853-1.485    c-5.148-1.289-10.47-2.623-15.413-4.504c-3.601-1.372-6.467-3.51-9.507-5.776c-2.085-1.562-4.237-3.169-6.687-4.549    c-2.994-1.69-2.661-4.374-2.381-5.458c0.576-2.184,2.525-4.383,5.148-4.383c0.863,0,1.751,0.243,2.623,0.735    c2.297,1.297,4.427,2.768,6.481,4.186c4.291,2.964,8.711,6.02,14.64,7.422c6.103,1.44,11.743,2.122,17.717,2.851    c1.524,0.174,3.07,0.363,4.64,0.561c2.131,0.28,4.192,0.417,6.134,0.417c9.165,0,16.808-2.889,25.541-9.65    c1.258-0.979,2.607-1.941,3.957-2.911c4.867-3.473,9.894-7.059,12.752-12.274l0.75-1.372c6.922-12.646,15.55-28.384,17.809-42.856    c0.826-5.345,0.925-11.167,1.001-16.792c0.03-2.092,0.061-4.147,0.129-6.141l0.03-0.75c0.144-3.821,0.272-7.43-1.881-11.099    c-0.818-1.183-1.433-2.358-1.888-3.586c-0.295-1.653-0.561-3.321-0.818-4.973c-1.85-11.66-3.761-23.714-14.162-32.789    c-12.046-10.5-27.246-19.908-42.811-26.481c-17.952-7.596-33.585-11.508-53.956-13.487c-2.145-0.212-4.29-0.311-6.542-0.311    c-5.747,0-11.243,0.682-16.558,1.342c-4.708,0.591-9.583,1.19-14.669,1.342c-18.043,0.493-39.134,13.654-51.711,24.775    l-1.668,1.471c-10.856,9.583-22.099,19.499-29.226,31.924c-8.354,14.556-11.773,27.876-14.344,43.417    c-3.161,19.097-2.941,33.221,0.652,43.175l1.395,3.874c5.58,15.557,11.902,33.176,22.501,45.98    c9.355,11.296,24.889,17.368,39.999,22.614c16.997,5.898,33.077,8.764,49.141,8.764c11.933,0,24.396-0.553,34.805-4.609    l0.334-0.129l0.25-0.258c0.303-0.318,0.637-0.583,1.001-0.826c1.933-1.288,8.172-5.83,6.952-9.9    c-1.085-3.579-6.831-3.579-8.711-3.594h-0.318c-2.677,0-5.346,0.061-8.021,0.106c-2.646,0.045-5.299,0.105-7.945,0.105    c-4.139,0-8.324-0.234-12.372-0.462c-4.071-0.235-8.279-0.471-12.464-0.471c-17.118,0-36.693-6.072-49.861-15.488    c-3.093-2.206-2.35-5.458-2.047-6.398c0.728-2.282,2.555-3.866,4.435-3.866c0.879,0,1.789,0.326,2.699,0.971    c19.855,14.184,43.797,14.374,66.942,14.548c7.596,0.061,15.458,0.114,22.888,0.705c8.635,0.667,15.859,6.27,18.854,14.602    c1.516,4.2-0.493,8.021-6.482,12.396l-0.296,0.204l-0.182,0.326c-0.387,0.69-0.909,1.304-1.569,1.812    C288.133,362.365,273.092,366.005,252.759,366.005L252.759,366.005z" fill="#0077BF"/></g></g></svg>