<svg width="64" height="64" xmlns="http://www.w3.org/2000/svg">

 <g>
  <title>background</title>
  <rect fill="none" id="canvas_background" height="402" width="582" y="-1" x="-1"/>
 </g>
 <g>
  <title>Layer 1</title>
  <circle id="svg_1" r="32" fill="#374f95" cy="32" cx="32"/>
  <path id="svg_2" opacity="0.2" fill="#231F20" d="m47.955,42.392l-2.983,-9.544c-0.165,-0.527 -0.728,-0.818 -1.253,-0.656l-8.867,2.772l7.083,-4.439c0.468,-0.293 0.609,-0.91 0.316,-1.378l-6.91,-11.026c-0.292,-0.468 -0.91,-0.609 -1.378,-0.316l-8.744,5.479l-1.336,-4.274c-0.66,-2.11 -3.037,-4.812 -6.891,-3.609c-0.791,0.247 -1.231,1.088 -0.984,1.879c0.247,0.791 1.088,1.229 1.879,0.984c2.174,-0.682 2.95,1.093 3.132,1.64l7.97,25.497c-2.004,1.313 -2.99,3.841 -2.241,6.24c0.722,2.309 2.831,3.86 5.249,3.86c0.556,0 1.108,-0.084 1.642,-0.251c1.402,-0.438 2.55,-1.396 3.231,-2.698c0.442,-0.843 0.628,-1.766 0.603,-2.692l8.335,-2.605c0.791,-0.247 1.231,-1.088 0.984,-1.879c-0.248,-0.792 -1.09,-1.232 -1.879,-0.984l-8.323,2.601l0,0l10.709,-3.347c0.253,-0.079 0.464,-0.256 0.587,-0.491s0.148,-0.51 0.069,-0.763zm-17.599,-6.024c-0.253,0.079 -0.464,0.256 -0.587,0.491s-0.148,0.509 -0.069,0.762l2.153,6.889l0,0l-4.545,-14.541l3.844,6.133c0.003,0.005 0.009,0.008 0.013,0.013l-0.809,0.253z"/>
  <polygon id="svg_3" stroke-width="2" stroke-miterlimit="10" stroke-linejoin="round" stroke-linecap="round" stroke="#F5CF87" points="  31.999,32.57 31.999,32.57 41.403,26.676 41.403,26.676 34.493,15.65 34.493,15.65 25.088,21.544 25.088,21.544 " fill="#F5CF87"/>
  <path id="svg_4" stroke-width="3" stroke-miterlimit="10" stroke-linejoin="round" stroke-linecap="round" stroke="#FFFFFF" fill="none" d="m45.36,42.822l-13.362,4.177l-9.548,-30.543c0,0 -1.193,-3.818 -5.011,-2.624"/>
  <polygon id="svg_5" stroke-width="2" stroke-miterlimit="10" stroke-linejoin="round" stroke-linecap="round" stroke="#E0995E" points="  33.638,43.867 33.638,43.867 47,39.69 47,39.69 44.017,30.146 44.017,30.146 30.654,34.322 30.654,34.322 " fill="#E0995E"/>
  <ellipse id="svg_6" transform="matrix(0.9545,-0.2983,0.2983,0.9545,-12.5645,11.6864) " stroke-width="3" stroke-miterlimit="10" stroke-linejoin="round" stroke-linecap="round" stroke="#4F5D73" ry="4" rx="4" fill="#F5CF87" cy="46.999" cx="31.997"/>
 </g>
</svg>