<svg width="64" height="64" xmlns="http://www.w3.org/2000/svg">

 <g>
  <title>background</title>
  <rect fill="none" id="canvas_background" height="402" width="582" y="-1" x="-1"/>
 </g>
 <g>
  <title>Layer 1</title>
  <circle id="svg_2" r="32" fill="#374f95" cy="32" cx="32"/>
  <path id="svg_4" fill="#C75C5C" d="m16,36c0,1.105 -0.895,2 -2,2l0,0c-1.105,0 -2,-0.895 -2,-2l0,-2c0,-1.105 0.895,-2 2,-2l0,0c1.105,0 2,0.895 2,2l0,2z"/>
  <path id="svg_6" fill="#F5CF87" d="m24,28c0,1.105 -0.895,2 -2,2l0,0c-1.105,0 -2,-0.895 -2,-2l0,-2c0,-1.105 0.895,-2 2,-2l0,0c1.105,0 2,0.895 2,2l0,2z"/>
  <path id="svg_8" fill="#F5CF87" d="m44,28c0,1.105 -0.895,2 -2,2l0,0c-1.105,0 -2,-0.895 -2,-2l0,-2c0,-1.105 0.895,-2 2,-2l0,0c1.105,0 2,0.895 2,2l0,2z"/>
  <path id="svg_10" fill="#76C2AF" d="m48,36c0,1.105 0.895,2 2,2l0,0c1.105,0 2,-0.895 2,-2l0,-2c0,-1.105 -0.895,-2 -2,-2l0,0c-1.105,0 -2,0.895 -2,2l0,2z"/>
  <path opacity="0.2" id="svg_12" fill="#231F20" d="m32,32.595l17,4.797c2.891,0.862 3,-0.412 3,-2.399l0,1.199c0,-1.987 0.094,-3.354 -1.75,-4.479l-18.25,-8.713l-18.25,8.714c-1.844,1.124 -1.75,2.492 -1.75,4.479l0,-1.199c0,1.987 0.109,3.261 3,2.399l17,-4.798z"/>
  <path id="svg_14" fill="#E0E0D1" d="m32,30.595l17,4.797c2.891,0.862 3,-0.412 3,-2.399l0,1.199c0,-1.987 0.094,-3.354 -1.75,-4.479l-18.25,-8.713l-18.25,8.714c-1.844,1.124 -1.75,2.492 -1.75,4.479l0,-1.199c0,1.987 0.109,3.261 3,2.399l17,-4.798z"/>
  <path id="svg_17" fill="#E0E0D1" d="m51.998,33.362c0,0.032 0.002,0.062 0.002,0.094l0,-0.463c0,0.126 0,0.249 -0.002,0.369z"/>
  <path id="svg_19" fill="#E0E0D1" d="m52,33.456l0,0.736c0,-0.255 0.001,-0.5 0,-0.736z"/>
  <polygon opacity="0.2" id="svg_21" points="32,21 26.98,23.397 27.417,31.888 32,30.595 36.583,31.888 37.02,23.397    " fill="#231F20"/>
  <path id="svg_23" fill="#E0E0D1" d="m35,43.618c0,1.591 -0.343,2.882 -2,2.882l-2,0c-1.657,0 -2,-1.29 -2,-2.882l-1,-26.855c0,-1.591 2.343,-6.763 4,-6.763l0,0c1.657,0 4,5.172 4,6.763l-1,26.855z"/>
  <path opacity="0.2" id="svg_25" fill="#231F20" d="m42.992,48.847l-10.992,-6.847l-10.992,6.847c-1.152,0.916 -1.008,2.29 -1.008,3.91c0,0 0.193,1.826 2,1.123l10,-3.88l10,3.88c1.807,0.703 2,-1.123 2,-1.123c0,-1.62 0.144,-2.994 -1.008,-3.91z"/>
  <path id="svg_27" fill="#E0E0D1" d="m42.992,46.847l-10.992,-6.847l-10.992,6.847c-1.152,0.916 -1.008,2.29 -1.008,3.91c0,0 0.193,1.826 2,1.123l10,-3.88l10,3.88c1.807,0.703 2,-1.123 2,-1.123c0,-1.62 0.144,-2.994 -1.008,-3.91z"/>
  <path opacity="0.2" id="svg_29" fill="#231F20" d="m34,51c0,1.105 -0.895,2 -2,2l0,0c-1.105,0 -2,-0.895 -2,-2l0,-5c0,-1.105 0.895,-2 2,-2l0,0c1.105,0 2,0.895 2,2l0,5z"/>
  <path id="svg_31" fill="#E0E0D1" d="m34,49c0,1.105 -0.895,2 -2,2l0,0c-1.105,0 -2,-0.895 -2,-2l0,-5c0,-1.105 0.895,-2 2,-2l0,0c1.105,0 2,0.895 2,2l0,5z"/>
  <path id="svg_34" fill="#77B3D4" d="m32,16c1.163,0 2.176,-1.223 2.714,-3.033c-0.807,-1.566 -1.852,-2.967 -2.714,-2.967s-1.907,1.401 -2.714,2.967c0.538,1.81 1.551,3.033 2.714,3.033z"/>
 </g>
</svg>