<svg width="64" height="64" xmlns="http://www.w3.org/2000/svg">

 <g>
  <title>background</title>
  <rect fill="none" id="canvas_background" height="402" width="582" y="-1" x="-1"/>
 </g>
 <g>
  <title>Layer 1</title>
  <circle id="svg_1" r="32" fill="#374f95" cy="32" cx="32"/>
  <path opacity="0.2" id="svg_3" fill="#231F20" d="m36,18l-22,0c-2.209,0 -4,1.791 -4,4l0,16c0,2.209 1.791,4 4,4l0,2c0,2.209 1.791,4 4,4s4,-1.791 4,-4l0,-2l18,0c0,0 0,-1.791 0,-4l0,-16c0,-2.209 -1.791,-4 -4,-4z"/>
  <path opacity="0.2" id="svg_4" fill="#231F20" d="m50,26l-8,0c0,0 0,1.791 0,4l0,8c0,1.202 0,2.267 0,3c0,0.615 0,1 0,1l0,2c0,2.209 1.791,4 4,4s4,-1.791 4,-4l0,-2c2.209,0 4,0 4,0l0,-12c0,-2.209 -1.791,-4 -4,-4z"/>
  <path id="svg_5" fill="#e0995e" d="m40,36c0,2.209 0,4 0,4l-26,0c-2.209,0 -4,-1.791 -4,-4l0,-16c0,-2.209 1.791,-4 4,-4l22,0c2.209,0 4,1.791 4,4l0,16z"/>
  <path id="svg_6" fill="#f5cf87" d="m54,40c0,0 -1.791,0 -4,0l-8,0c0,0 0,-1.791 0,-4l0,-8c0,-2.209 0,-4 0,-4l8,0c2.209,0 4,1.791 4,4l0,12z"/>
  <path id="svg_8" fill="#b7b7b7" d="m18,46c2.209,0 4,-1.791 4,-4l-8,0c0,2.209 1.791,4 4,4z"/>
  <path id="svg_9" fill="#b7b7b7" d="m46,46c2.209,0 4,-1.791 4,-4l-8,0c0,2.209 1.791,4 4,4z"/>
 </g>
</svg>